<mxfile host="app.diagrams.net" agent="Mozilla/5.0 (Windows NT 10.0; Win64; x64) AppleWebKit/537.36 (KHTML, like Gecko) Chrome/130.0.0.0 Safari/537.36" version="24.8.4">
  <diagram id="C5RBs43oDa-KdzZeNtuy" name="Page-1">
    <mxGraphModel dx="1434" dy="772" grid="1" gridSize="10" guides="1" tooltips="1" connect="1" arrows="1" fold="1" page="1" pageScale="1" pageWidth="827" pageHeight="1169" math="0" shadow="0">
      <root>
        <mxCell id="WIyWlLk6GJQsqaUBKTNV-0" />
        <mxCell id="WIyWlLk6GJQsqaUBKTNV-1" parent="WIyWlLk6GJQsqaUBKTNV-0" />
        <mxCell id="rBDSZQotBGZqqEE8AVzo-0" value="&lt;div&gt;刪除會員資訊頁面&lt;/div&gt;" style="text;html=1;align=center;verticalAlign=middle;resizable=0;points=[];autosize=1;strokeColor=none;fillColor=none;" parent="WIyWlLk6GJQsqaUBKTNV-1" vertex="1">
          <mxGeometry x="160" y="28" width="120" height="30" as="geometry" />
        </mxCell>
        <mxCell id="rBDSZQotBGZqqEE8AVzo-1" value="" style="rounded=0;html=1;jettySize=auto;orthogonalLoop=1;fontSize=11;endArrow=block;endFill=0;endSize=8;strokeWidth=1;shadow=0;labelBackgroundColor=none;edgeStyle=orthogonalEdgeStyle;" parent="WIyWlLk6GJQsqaUBKTNV-1" source="rBDSZQotBGZqqEE8AVzo-2" target="rBDSZQotBGZqqEE8AVzo-5" edge="1">
          <mxGeometry relative="1" as="geometry" />
        </mxCell>
        <mxCell id="rBDSZQotBGZqqEE8AVzo-2" value="&lt;div&gt;管理員登入系統&lt;/div&gt;" style="rounded=1;whiteSpace=wrap;html=1;fontSize=12;glass=0;strokeWidth=1;shadow=0;" parent="WIyWlLk6GJQsqaUBKTNV-1" vertex="1">
          <mxGeometry x="160" y="70" width="120" height="40" as="geometry" />
        </mxCell>
        <mxCell id="rBDSZQotBGZqqEE8AVzo-3" value="&lt;div&gt;如果已登入&lt;/div&gt;" style="rounded=0;html=1;jettySize=auto;orthogonalLoop=1;fontSize=11;endArrow=block;endFill=0;endSize=8;strokeWidth=1;shadow=0;labelBackgroundColor=none;edgeStyle=orthogonalEdgeStyle;entryX=0.5;entryY=0;entryDx=0;entryDy=0;" parent="WIyWlLk6GJQsqaUBKTNV-1" source="rBDSZQotBGZqqEE8AVzo-5" target="rBDSZQotBGZqqEE8AVzo-8" edge="1">
          <mxGeometry x="-0.1111" y="40" relative="1" as="geometry">
            <mxPoint as="offset" />
            <mxPoint x="220" y="300" as="targetPoint" />
          </mxGeometry>
        </mxCell>
        <mxCell id="rBDSZQotBGZqqEE8AVzo-4" value="&lt;div&gt;如果未登入&lt;/div&gt;" style="edgeStyle=orthogonalEdgeStyle;rounded=0;html=1;jettySize=auto;orthogonalLoop=1;fontSize=11;endArrow=block;endFill=0;endSize=8;strokeWidth=1;shadow=0;labelBackgroundColor=none;" parent="WIyWlLk6GJQsqaUBKTNV-1" source="rBDSZQotBGZqqEE8AVzo-5" target="rBDSZQotBGZqqEE8AVzo-7" edge="1">
          <mxGeometry y="10" relative="1" as="geometry">
            <mxPoint as="offset" />
          </mxGeometry>
        </mxCell>
        <mxCell id="rBDSZQotBGZqqEE8AVzo-5" value="&lt;div&gt;檢查管理員身份&lt;/div&gt;" style="rhombus;whiteSpace=wrap;html=1;shadow=0;fontFamily=Helvetica;fontSize=12;align=center;strokeWidth=1;spacing=6;spacingTop=-4;" parent="WIyWlLk6GJQsqaUBKTNV-1" vertex="1">
          <mxGeometry x="170" y="160" width="100" height="80" as="geometry" />
        </mxCell>
        <mxCell id="rBDSZQotBGZqqEE8AVzo-6" style="edgeStyle=orthogonalEdgeStyle;rounded=0;orthogonalLoop=1;jettySize=auto;html=1;exitX=0.5;exitY=0;exitDx=0;exitDy=0;entryX=1;entryY=0.5;entryDx=0;entryDy=0;" parent="WIyWlLk6GJQsqaUBKTNV-1" source="rBDSZQotBGZqqEE8AVzo-7" target="rBDSZQotBGZqqEE8AVzo-2" edge="1">
          <mxGeometry relative="1" as="geometry" />
        </mxCell>
        <mxCell id="rBDSZQotBGZqqEE8AVzo-7" value="&lt;div&gt;提示「請先登入」並跳轉到登入頁面&lt;/div&gt;" style="rounded=1;whiteSpace=wrap;html=1;fontSize=12;glass=0;strokeWidth=1;shadow=0;" parent="WIyWlLk6GJQsqaUBKTNV-1" vertex="1">
          <mxGeometry x="400" y="180" width="210" height="40" as="geometry" />
        </mxCell>
        <mxCell id="rBDSZQotBGZqqEE8AVzo-10" value="" style="edgeStyle=orthogonalEdgeStyle;rounded=0;orthogonalLoop=1;jettySize=auto;html=1;" parent="WIyWlLk6GJQsqaUBKTNV-1" source="rBDSZQotBGZqqEE8AVzo-8" target="rBDSZQotBGZqqEE8AVzo-9" edge="1">
          <mxGeometry relative="1" as="geometry" />
        </mxCell>
        <mxCell id="rBDSZQotBGZqqEE8AVzo-8" value="&lt;div&gt;查詢並選擇要刪除的會員&lt;/div&gt;" style="rounded=1;whiteSpace=wrap;html=1;" parent="WIyWlLk6GJQsqaUBKTNV-1" vertex="1">
          <mxGeometry x="150" y="300" width="140" height="40" as="geometry" />
        </mxCell>
        <mxCell id="rBDSZQotBGZqqEE8AVzo-12" value="" style="edgeStyle=orthogonalEdgeStyle;rounded=0;orthogonalLoop=1;jettySize=auto;html=1;" parent="WIyWlLk6GJQsqaUBKTNV-1" source="rBDSZQotBGZqqEE8AVzo-9" target="rBDSZQotBGZqqEE8AVzo-11" edge="1">
          <mxGeometry relative="1" as="geometry" />
        </mxCell>
        <mxCell id="rBDSZQotBGZqqEE8AVzo-13" value="&lt;div&gt;管理員確認刪除&lt;/div&gt;" style="edgeLabel;html=1;align=center;verticalAlign=middle;resizable=0;points=[];" parent="rBDSZQotBGZqqEE8AVzo-12" vertex="1" connectable="0">
          <mxGeometry x="-0.3429" relative="1" as="geometry">
            <mxPoint x="60" y="17" as="offset" />
          </mxGeometry>
        </mxCell>
        <mxCell id="rBDSZQotBGZqqEE8AVzo-9" value="&lt;div&gt;顯示確認對話框，詢問是否確定刪除該會員&lt;/div&gt;" style="rounded=1;whiteSpace=wrap;html=1;" parent="WIyWlLk6GJQsqaUBKTNV-1" vertex="1">
          <mxGeometry x="150" y="390" width="140" height="40" as="geometry" />
        </mxCell>
        <mxCell id="rBDSZQotBGZqqEE8AVzo-11" value="&lt;div&gt;顯示「會員資訊已刪除」&lt;/div&gt;" style="rounded=1;whiteSpace=wrap;html=1;" parent="WIyWlLk6GJQsqaUBKTNV-1" vertex="1">
          <mxGeometry x="150" y="510" width="140" height="40" as="geometry" />
        </mxCell>
      </root>
    </mxGraphModel>
  </diagram>
</mxfile>
